<svg width="41" height="42" viewBox="0 0 41 42" fill="none" xmlns="http://www.w3.org/2000/svg">
<path d="M28.651 0.623004C32.2795 1.272 35.7605 3.6025 37.7075 6.877C39.684 10.1515 40.156 14.311 40.0675 18.441C39.979 22.571 39.33 26.6715 37.2355 29.6805C35.141 32.719 31.5715 34.6955 28.0315 36.613C24.4915 38.501 21.0105 40.33 17.0575 41.097C13.1045 41.8935 8.70898 41.5985 6.28998 39.0615C3.87098 36.495 3.42848 31.6865 2.57298 27.881C1.74698 24.0755 0.507983 21.3025 0.360483 18.4115C0.212983 15.55 1.15698 12.5705 2.57298 9.7385C3.95948 6.9065 5.81798 4.222 8.38448 2.9535C10.951 1.685 14.2255 1.8915 17.736 1.449C21.276 1.0065 25.0225 -0.0259964 28.651 0.623004Z" fill="#FBEAF3"/>
</svg>
