<svg width="253" height="261" viewBox="0 0 253 261" fill="none" xmlns="http://www.w3.org/2000/svg">
<path d="M179.686 1.67801C202.687 5.79201 224.753 20.565 237.095 41.322C249.624 62.079 252.616 88.446 252.055 114.626C251.494 140.806 247.38 166.799 234.103 185.873C220.826 205.134 198.199 217.663 175.759 229.818C153.319 241.786 131.253 253.38 106.195 258.242C81.137 263.291 53.274 261.421 37.94 245.339C22.606 229.07 19.801 198.589 14.378 174.466C9.142 150.343 1.288 132.765 0.353 114.439C-0.582 96.3 5.402 77.413 14.378 59.461C23.167 41.509 34.948 24.492 51.217 16.451C67.486 8.41 88.243 9.719 110.496 6.914C132.936 4.109 156.685 -2.43599 179.686 1.67801Z" fill="#FBEAF3"/>
</svg>
