<svg width="103" height="106" viewBox="0 0 103 106" fill="none" xmlns="http://www.w3.org/2000/svg">
<path d="M73.039 0.746993C82.3255 2.40799 91.2345 8.37249 96.2175 16.753C101.276 25.1335 102.484 35.779 102.258 46.349C102.031 56.919 100.37 67.4135 95.0095 75.1145C89.649 82.891 80.5135 87.9495 71.4535 92.857C62.3935 97.689 53.4845 102.37 43.3675 104.333C33.2505 106.372 22.001 105.617 15.81 99.1235C9.61903 92.555 8.48653 80.2485 6.29703 70.509C4.18303 60.7695 1.01203 53.6725 0.634528 46.2735C0.257028 38.95 2.67303 31.3245 6.29703 24.0765C9.84553 16.8285 14.602 9.95799 21.1705 6.71149C27.739 3.46499 36.1195 3.99349 45.104 2.86099C54.164 1.72849 63.7525 -0.914008 73.039 0.746993Z" fill="#FBEAF3"/>
</svg>
