<svg width="32" height="32" viewBox="0 0 32 32" fill="none" xmlns="http://www.w3.org/2000/svg">
<path d="M25.3334 6.66667H17.3334V2.66667H14.6667V6.66667H6.66675C4.46141 6.66667 2.66675 8.46133 2.66675 10.6667V24C2.66675 25.4707 3.86275 26.6667 5.33341 26.6667H26.6667C28.1374 26.6667 29.3334 25.4707 29.3334 24V10.6667C29.3334 8.46133 27.5387 6.66667 25.3334 6.66667ZM6.66675 9.33333H25.3334C25.687 9.33333 26.0262 9.47381 26.2762 9.72386C26.5263 9.97391 26.6667 10.313 26.6667 10.6667L26.6681 14.8267C25.4734 15.1307 24.7094 15.8053 24.1134 16.336C23.4374 16.936 22.9907 17.3333 21.9961 17.3333C21.0027 17.3333 20.5561 16.936 19.8801 16.3373C19.0867 15.632 18.0014 14.6667 15.9934 14.6667C13.9867 14.6667 12.9014 15.632 12.1081 16.3373C11.4321 16.9373 10.9867 17.3333 9.99341 17.3333C9.00275 17.3333 8.55742 16.9373 7.88408 16.3373C7.28808 15.8067 6.52675 15.1307 5.33341 14.8267V10.6667C5.33341 10.313 5.47389 9.97391 5.72394 9.72386C5.97399 9.47381 6.31313 9.33333 6.66675 9.33333ZM5.33341 24V17.7147C5.58808 17.8787 5.83208 18.08 6.11075 18.3293C6.90408 19.0347 7.98808 20 9.99341 20C12.0001 20 13.0854 19.0347 13.8787 18.3293C14.5547 17.7293 15.0001 17.3333 15.9934 17.3333C16.9867 17.3333 17.4334 17.7307 18.1094 18.3293C18.9027 19.0347 19.9881 20 21.9961 20C24.0041 20 25.0907 19.0347 25.8841 18.3293C26.1654 18.0787 26.4107 17.876 26.6681 17.7107L26.6694 24H5.33341Z" fill="#91C1F0"/>
</svg>
