<svg width="32" height="32" viewBox="0 0 32 32" fill="none" xmlns="http://www.w3.org/2000/svg">
<path fill-rule="evenodd" clip-rule="evenodd" d="M9.95325 1.42134C11.5173 1.34934 12.0159 1.33334 15.9999 1.33334C19.9839 1.33334 20.4826 1.35067 22.0453 1.42134C23.6079 1.492 24.6746 1.74134 25.6079 2.10267C26.5853 2.472 27.4719 3.04934 28.2053 3.796C28.9519 4.528 29.5279 5.41334 29.8959 6.392C30.2586 7.32534 30.5066 8.392 30.5786 9.952C30.6506 11.5187 30.6666 12.0173 30.6666 16C30.6666 19.984 30.6493 20.4827 30.5786 22.0467C30.5079 23.6067 30.2586 24.6733 29.8959 25.6067C29.5279 26.5855 28.951 27.4723 28.2053 28.2053C27.4719 28.952 26.5853 29.528 25.6079 29.896C24.6746 30.2587 23.6079 30.5067 22.0479 30.5787C20.4826 30.6507 19.9839 30.6667 15.9999 30.6667C12.0159 30.6667 11.5173 30.6493 9.95325 30.5787C8.39325 30.508 7.32659 30.2587 6.39325 29.896C5.41448 29.528 4.52768 28.951 3.79459 28.2053C3.04843 27.4729 2.471 26.5865 2.10259 25.608C1.74125 24.6747 1.49325 23.608 1.42125 22.048C1.34925 20.4813 1.33325 19.9827 1.33325 16C1.33325 12.016 1.35059 11.5173 1.42125 9.95467C1.49192 8.392 1.74125 7.32534 2.10259 6.392C2.47155 5.41344 3.04941 4.52709 3.79592 3.79467C4.52797 3.04867 5.41388 2.47126 6.39192 2.10267C7.32525 1.74134 8.39192 1.49334 9.95192 1.42134H9.95325ZM21.9266 4.06134C20.3799 3.99067 19.9159 3.976 15.9999 3.976C12.0839 3.976 11.6199 3.99067 10.0733 4.06134C8.64259 4.12667 7.86659 4.36534 7.34925 4.56667C6.66525 4.83334 6.17592 5.14934 5.66259 5.66267C5.17598 6.13607 4.80149 6.71238 4.56659 7.34934C4.36525 7.86667 4.12659 8.64267 4.06125 10.0733C3.99059 11.62 3.97592 12.084 3.97592 16C3.97592 19.916 3.99059 20.38 4.06125 21.9267C4.12659 23.3573 4.36525 24.1333 4.56659 24.6507C4.80125 25.2867 5.17592 25.864 5.66259 26.3373C6.13592 26.824 6.71325 27.1987 7.34925 27.4333C7.86659 27.6347 8.64259 27.8733 10.0733 27.9387C11.6199 28.0093 12.0826 28.024 15.9999 28.024C19.9173 28.024 20.3799 28.0093 21.9266 27.9387C23.3573 27.8733 24.1333 27.6347 24.6506 27.4333C25.3346 27.1667 25.8239 26.8507 26.3373 26.3373C26.8239 25.864 27.1986 25.2867 27.4333 24.6507C27.6346 24.1333 27.8733 23.3573 27.9386 21.9267C28.0093 20.38 28.0239 19.916 28.0239 16C28.0239 12.084 28.0093 11.62 27.9386 10.0733C27.8733 8.64267 27.6346 7.86667 27.4333 7.34934C27.1666 6.66534 26.8506 6.176 26.3373 5.66267C25.8638 5.1761 25.2875 4.80162 24.6506 4.56667C24.1333 4.36534 23.3573 4.12667 21.9266 4.06134ZM14.1266 20.5213C15.1728 20.9568 16.3378 21.0156 17.4225 20.6876C18.5072 20.3596 19.4444 19.6652 20.0741 18.723C20.7037 17.7808 20.9867 16.6492 20.8746 15.5215C20.7626 14.3938 20.2626 13.34 19.4599 12.54C18.9482 12.0286 18.3295 11.6371 17.6484 11.3935C16.9672 11.15 16.2405 11.0605 15.5206 11.1315C14.8007 11.2025 14.1055 11.4322 13.485 11.8042C12.8645 12.1761 12.3342 12.681 11.9323 13.2825C11.5304 13.8839 11.2668 14.5671 11.1606 15.2826C11.0544 15.9982 11.1081 16.7284 11.318 17.4207C11.5278 18.113 11.8886 18.7501 12.3742 19.2863C12.8599 19.8224 13.4584 20.2442 14.1266 20.5213ZM10.6693 10.6693C11.3693 9.9693 12.2003 9.41401 13.115 9.03515C14.0296 8.6563 15.0099 8.4613 15.9999 8.4613C16.9899 8.4613 17.9702 8.6563 18.8849 9.03515C19.7995 9.41401 20.6306 9.9693 21.3306 10.6693C22.0306 11.3694 22.5859 12.2004 22.9648 13.1151C23.3436 14.0297 23.5386 15.01 23.5386 16C23.5386 16.99 23.3436 17.9703 22.9648 18.8849C22.5859 19.7996 22.0306 20.6306 21.3306 21.3307C19.9168 22.7445 17.9993 23.5387 15.9999 23.5387C14.0005 23.5387 12.083 22.7445 10.6693 21.3307C9.25547 19.9169 8.46122 17.9994 8.46122 16C8.46122 14.0006 9.25547 12.0831 10.6693 10.6693ZM25.2106 9.584C25.3841 9.42036 25.5229 9.22358 25.619 9.0053C25.715 8.78703 25.7663 8.55169 25.7698 8.31324C25.7733 8.07479 25.7289 7.83807 25.6392 7.61708C25.5496 7.3961 25.4165 7.19535 25.2479 7.02672C25.0792 6.85809 24.8785 6.72501 24.6575 6.63536C24.4365 6.54571 24.1998 6.5013 23.9613 6.50478C23.7229 6.50826 23.4876 6.55954 23.2693 6.6556C23.051 6.75165 22.8542 6.89053 22.6906 7.064C22.3723 7.40138 22.1981 7.8495 22.2049 8.31324C22.2116 8.77699 22.3988 9.21984 22.7268 9.54779C23.0547 9.87575 23.4976 10.063 23.9613 10.0697C24.4251 10.0765 24.8732 9.90226 25.2106 9.584Z" fill="#91C1F0"/>
</svg>
